<svg width="22" height="28" viewBox="0 0 22 28" fill="none" xmlns="http://www.w3.org/2000/svg">
<path d="M11 27.5C9.10541 25.8839 7.34929 24.1123 5.75 22.2035C3.35 19.337 0.500001 15.068 0.500001 11C0.49896 8.92244 1.11426 6.89127 2.26804 5.16354C3.42182 3.43581 5.06221 2.08919 6.9816 1.2941C8.901 0.499006 11.0131 0.291186 13.0507 0.696938C15.0882 1.10269 16.9596 2.10378 18.428 3.5735C19.4056 4.54679 20.1805 5.70431 20.7078 6.97906C21.2351 8.25382 21.5044 9.62049 21.5 11C21.5 15.068 18.65 19.337 16.25 22.2035C14.6507 24.1123 12.8946 25.8839 11 27.5ZM11 6.5C9.80653 6.5 8.66193 6.97411 7.81802 7.81802C6.97411 8.66193 6.5 9.80653 6.5 11C6.5 12.1935 6.97411 13.3381 7.81802 14.182C8.66193 15.0259 9.80653 15.5 11 15.5C12.1935 15.5 13.3381 15.0259 14.182 14.182C15.0259 13.3381 15.5 12.1935 15.5 11C15.5 9.80653 15.0259 8.66193 14.182 7.81802C13.3381 6.97411 12.1935 6.5 11 6.5Z" fill="#B3D73F"/>
</svg>
