<svg width="170" height="170" viewBox="0 0 170 170" fill="none" xmlns="http://www.w3.org/2000/svg">
<circle cx="85" cy="85" r="84.5" stroke="#B3D73F"/>
<path d="M81.3757 23V8.45455L86.2904 8.45455C87.4315 8.45455 88.3643 8.66051 89.0887 9.07244C89.8179 9.47964 90.3577 10.0313 90.7081 10.7273C91.0584 11.4233 91.2336 12.1998 91.2336 13.0568C91.2336 13.9138 91.0584 14.6927 90.7081 15.3935C90.3624 16.0942 89.8274 16.6529 89.1029 17.0696C88.3785 17.4815 87.4505 17.6875 86.3189 17.6875H82.7961V16.125H86.262C87.0433 16.125 87.6707 15.9901 88.1441 15.7202C88.6176 15.4503 88.9609 15.0857 89.174 14.6264C89.3918 14.1624 89.5007 13.6392 89.5007 13.0568C89.5007 12.4744 89.3918 11.9536 89.174 11.4943C88.9609 11.035 88.6153 10.6752 88.137 10.4148C87.6588 10.1496 87.0243 10.017 86.2336 10.017L83.137 10.017V23H81.3757Z" fill="#B3D73F"/>
<path d="M92.6706 23.2962L95.2677 8.98445L97.0008 9.29895L94.6826 22.0733L101.335 23.2806L101.056 24.8179L92.6706 23.2962Z" fill="#B3D73F"/>
<path d="M102.956 25.3663L101.228 24.7175L111.339 12.9762L113.041 13.6151L112.93 29.1097L111.202 28.4608L111.435 15.47L111.328 15.4301L102.956 25.3663ZM105.591 20.2864L112.56 22.9017L112.011 24.3646L105.042 21.7493L105.591 20.2864Z" fill="#B3D73F"/>
<path d="M119.176 16.0498L120.908 17.0843L120.888 24.9821L121.035 25.0695L127.98 21.3099L129.712 22.3444L120.814 26.9895L117.74 32.1353L116.228 31.2319L119.302 26.0861L119.176 16.0498Z" fill="#B3D73F"/>
<path d="M130.904 42.8635L142.277 33.7946L145.341 37.6371C146.052 38.5293 146.473 39.3869 146.602 40.2102C146.739 41.0341 146.644 41.8001 146.318 42.508C145.993 43.2159 145.495 43.837 144.825 44.3713C144.155 44.9057 143.436 45.2543 142.67 45.4173C141.907 45.584 141.136 45.514 140.359 45.2074C139.585 44.8979 138.845 44.3007 138.14 43.416L135.944 40.6618L137.165 39.6876L139.326 42.3974C139.813 43.0082 140.31 43.4145 140.816 43.6164C141.322 43.8183 141.821 43.8594 142.313 43.7396C142.812 43.6206 143.289 43.3796 143.744 43.0164C144.2 42.6533 144.539 42.2435 144.762 41.7868C144.988 41.3339 145.054 40.8393 144.96 40.303C144.869 39.7638 144.577 39.1851 144.084 38.5669L142.153 36.1459L132.003 44.2406L130.904 42.8635Z" fill="#B3D73F"/>
<path d="M137.715 51.8789L150.524 44.9863L151.359 46.5373L139.926 52.6896L143.13 58.6436L141.754 59.384L137.715 51.8789Z" fill="#B3D73F"/>
<path d="M142.51 61.2114L141.939 59.4551L157.423 60.0399L157.985 61.769L145.802 71.3433L145.231 69.5871L155.533 61.6696L155.498 61.5615L142.51 61.2114ZM148.124 60.104L150.424 67.1829L148.938 67.6657L146.638 60.5869L148.124 60.104Z" fill="#B3D73F"/>
<path d="M159.907 68.0838L160.178 70.0826L153.991 74.9916L154.014 75.1605L161.284 78.2467L161.554 80.2455L152.375 76.1852L146.435 76.9899L146.199 75.2444L152.139 74.4398L159.907 68.0838Z" fill="#B3D73F"/>
<path d="M146.256 93.9715L160.436 97.2082L159.343 102C159.089 103.112 158.68 103.976 158.118 104.59C157.558 105.211 156.9 105.614 156.144 105.801C155.387 105.988 154.591 105.986 153.756 105.795C152.92 105.604 152.2 105.26 151.595 104.763C150.988 104.27 150.563 103.624 150.318 102.825C150.077 102.027 150.083 101.076 150.335 99.9729L151.119 96.5385L152.642 96.8862L151.871 100.265C151.697 101.027 151.689 101.669 151.847 102.19C152.005 102.712 152.284 103.128 152.684 103.438C153.088 103.753 153.574 103.976 154.141 104.105C154.709 104.235 155.241 104.245 155.738 104.135C156.233 104.029 156.66 103.772 157.021 103.364C157.386 102.957 157.656 102.368 157.832 101.597L158.521 98.5777L145.864 95.6887L146.256 93.9715Z" fill="#B3D73F"/>
<path d="M143.454 104.918L156.829 110.634L156.136 112.254L144.198 107.151L141.541 113.368L140.104 112.754L143.454 104.918Z" fill="#B3D73F"/>
<path d="M139.146 114.485L140.164 112.943L149.361 125.414L148.359 126.931L133.278 123.376L134.295 121.834L146.908 124.952L146.971 124.857L139.146 114.485ZM143.513 118.184L139.412 124.396L138.108 123.535L142.209 117.323L143.513 118.184Z" fill="#B3D73F"/>
<path d="M144.62 132.371L143.226 133.829L135.531 132.053L135.413 132.176L137.533 139.784L136.139 141.242L133.59 131.534L129.258 127.391L130.475 126.118L134.808 130.26L144.62 132.371Z" fill="#B3D73F"/>
<path d="M115.869 137.839L122.18 150.944L117.752 153.076C116.724 153.571 115.794 153.79 114.963 153.734C114.129 153.683 113.403 153.42 112.786 152.945C112.168 152.47 111.673 151.847 111.301 151.075C110.93 150.302 110.75 149.525 110.761 148.741C110.769 147.96 111.008 147.224 111.48 146.535C111.954 145.849 112.701 145.261 113.72 144.77L116.894 143.242L117.572 144.649L114.449 146.153C113.746 146.492 113.239 146.886 112.929 147.334C112.62 147.783 112.469 148.26 112.476 148.767C112.481 149.279 112.61 149.798 112.863 150.323C113.115 150.847 113.44 151.269 113.835 151.589C114.226 151.91 114.694 152.084 115.238 152.111C115.784 152.143 116.413 151.987 117.125 151.644L119.915 150.3L114.282 138.603L115.869 137.839Z" fill="#B3D73F"/>
<path d="M105.564 142.473L109.433 156.494L107.736 156.963L104.282 144.447L97.7639 146.246L97.3482 144.74L105.564 142.473Z" fill="#B3D73F"/>
<path d="M95.3988 145.07L97.238 144.905L93.2224 159.87L91.4115 160.033L84.7883 146.025L86.6274 145.86L92.0541 157.665L92.1673 157.655L95.3988 145.07ZM95.2291 150.79L87.8158 151.458L87.6758 149.901L95.089 149.234L95.2291 150.79Z" fill="#B3D73F"/>
<path d="M84.8273 160.502L82.8183 160.321L79.4091 153.197L79.2393 153.182L74.6129 159.583L72.6039 159.402L78.605 151.356L79.1423 145.386L80.8966 145.544L80.3593 151.514L84.8273 160.502Z" fill="#B3D73F"/>
<path d="M62.6264 141.432L56.3154 154.537L51.8873 152.405C50.8592 151.91 50.1082 151.319 49.6342 150.634C49.1539 149.951 48.907 149.22 48.8933 148.44C48.8796 147.661 49.0587 146.886 49.4305 146.114C49.8024 145.341 50.2981 144.716 50.9179 144.236C51.5333 143.755 52.2578 143.484 53.0913 143.423C53.9227 143.366 54.8482 143.583 55.8677 144.074L59.0416 145.602L58.3637 147.01L55.241 145.506C54.5371 145.167 53.9133 145.017 53.3696 145.054C52.8259 145.092 52.3585 145.272 51.9672 145.593C51.5697 145.917 51.2445 146.341 50.9918 146.865C50.7392 147.39 50.6113 147.907 50.6083 148.415C50.6009 148.921 50.7562 149.395 51.0741 149.838C51.3899 150.284 51.904 150.679 52.6164 151.022L55.4064 152.365L61.0395 140.668L62.6264 141.432Z" fill="#B3D73F"/>
<path d="M52.5784 136.265L44.0288 148.032L42.6039 146.997L50.2351 136.493L44.765 132.519L45.6834 131.255L52.5784 136.265Z" fill="#B3D73F"/>
<path d="M44.2095 129.937L45.4856 131.271L31.2813 137.463L30.0249 136.149L36.8473 122.237L38.1235 123.571L32.2771 135.175L32.3556 135.257L44.2095 129.937ZM39.6316 133.37L34.4878 127.991L35.6172 126.911L40.7609 132.291L39.6316 133.37Z" fill="#B3D73F"/>
<path d="M25.5535 131.293L24.4423 129.61L27.8865 122.502L27.7926 122.36L19.9036 122.734L18.7924 121.051L28.8243 120.726L33.827 117.424L34.7974 118.894L29.7947 122.196L25.5535 131.293Z" fill="#B3D73F"/>
<path d="M26.6207 102.046L12.4399 105.283L11.3462 100.491C11.0923 99.3787 11.0856 98.4235 11.326 97.6255C11.5607 96.824 11.9784 96.175 12.579 95.6786C13.1796 95.1821 13.8976 94.8385 14.7332 94.6478C15.5687 94.4571 16.367 94.4546 17.1282 94.6402C17.8883 94.8213 18.552 95.2186 19.1195 95.8321C19.6823 96.4467 20.0896 97.3057 20.3414 98.4089L21.1253 101.843L19.6019 102.191L18.8307 98.812C18.6569 98.0503 18.3857 97.4687 18.0172 97.0672C17.6487 96.6656 17.2169 96.4121 16.7217 96.3066C16.2209 96.1975 15.6866 96.2077 15.1188 96.3373C14.551 96.4669 14.0675 96.689 13.6682 97.0035C13.2678 97.3134 12.9939 97.7305 12.8464 98.2547C12.6943 98.7799 12.7063 99.428 12.8822 100.199L13.5713 103.218L26.2287 100.329L26.6207 102.046Z" fill="#B3D73F"/>
<path d="M24.396 90.9683L9.86522 91.6209L9.7862 89.8613L22.7561 89.2788L22.4527 82.5242L24.0137 82.4541L24.396 90.9683Z" fill="#B3D73F"/>
<path d="M24.1254 80.4798L23.8775 82.3097L10.1806 75.0647L10.4247 73.2629L25.5554 69.9229L25.3076 71.7527L12.5906 74.4164L12.5754 74.529L24.1254 80.4798ZM18.5865 79.0415L19.5856 71.6657L21.134 71.8754L20.1349 79.2512L18.5865 79.0415Z" fill="#B3D73F"/>
<path d="M11.4332 66.7395L12.0565 64.8212L19.7606 63.0827L19.8133 62.9206L14.6024 56.9858L15.2257 55.0675L21.7342 62.7084L27.4352 64.5607L26.8909 66.2359L21.1899 64.3835L11.4332 66.7395Z" fill="#B3D73F"/>
<path d="M34.9647 49.3387L23.5926 40.2698L26.6569 36.4273C27.3684 35.5351 28.111 34.9343 28.8847 34.6247C29.6577 34.3085 30.4255 34.2304 31.1882 34.3904C31.9508 34.5505 32.6671 34.8977 33.3372 35.432C34.0072 35.9663 34.5069 36.5889 34.8363 37.2998C35.1687 38.0069 35.2719 38.7736 35.146 39.5998C35.0164 40.423 34.5988 41.277 33.8933 42.1617L31.6969 44.9159L30.4753 43.9417L32.6362 41.2319C33.1233 40.6211 33.409 40.0465 33.4932 39.508C33.5774 38.9696 33.5064 38.4739 33.2802 38.0209C33.0532 37.5613 32.712 37.15 32.2567 36.7869C31.8014 36.4238 31.3263 36.1842 30.8314 36.0681C30.3395 35.9483 29.8426 35.9942 29.3408 36.2057C28.8354 36.4143 28.3361 36.8277 27.8431 37.4459L25.9124 39.8669L36.0629 47.9616L34.9647 49.3387Z" fill="#B3D73F"/>
<path d="M42.2385 40.6925L32.6685 29.7388L33.995 28.5799L42.537 38.357L47.6287 33.9084L48.6568 35.0851L42.2385 40.6925Z" fill="#B3D73F"/>
<path d="M50.2704 33.9417L48.6852 34.8888L45.8097 19.6629L47.3705 18.7304L59.4158 28.4776L57.8306 29.4247L47.8191 21.1429L47.7216 21.2012L50.2704 33.9417ZM47.9415 28.7144L54.3311 24.8968L55.1325 26.2382L48.7429 30.0558L47.9415 28.7144Z" fill="#B3D73F"/>
<path d="M53.0992 15.4515L54.9877 14.7428L61.1503 19.6821L61.3099 19.6222L62.701 11.8479L64.5894 11.1392L62.6735 20.9918L64.7797 26.6039L63.1307 27.2228L61.0244 21.6107L53.0992 15.4515Z" fill="#B3D73F"/>
<circle cx="86" cy="85" r="55.5" stroke="#B3D73F"/>
</svg>
