<svg width="120" height="120" viewBox="0 0 120 120" fill="none" xmlns="http://www.w3.org/2000/svg">
<path d="M96.0913 48.2812H66.0913C65.5757 48.2812 65.1538 48.7031 65.1538 49.2187V54.8437C65.1538 55.3594 65.5757 55.7812 66.0913 55.7812H96.0913C96.6069 55.7812 97.0288 55.3594 97.0288 54.8437V49.2187C97.0288 48.7031 96.6069 48.2812 96.0913 48.2812ZM80.3882 64.2187H66.0913C65.5757 64.2187 65.1538 64.6406 65.1538 65.1562V70.7812C65.1538 71.2969 65.5757 71.7187 66.0913 71.7187H80.3882C80.9038 71.7187 81.3257 71.2969 81.3257 70.7812V65.1562C81.3257 64.6406 80.9038 64.2187 80.3882 64.2187ZM41.2827 37.793H36.2085C35.4819 37.793 34.896 38.3789 34.896 39.1055V68.168C34.896 68.5898 35.0952 68.9766 35.4351 69.2227L52.8843 81.9492C53.4702 82.3711 54.2905 82.2539 54.7124 81.668L57.7241 77.5547V77.543C58.146 76.957 58.0171 76.1367 57.4312 75.7148L42.5835 64.9805V39.1055C42.5952 38.3789 41.9976 37.793 41.2827 37.793Z" fill="#B3D73F"/>
<path d="M94.3126 78.9726H87.5391C86.8829 78.9726 86.2618 79.3124 85.9102 79.8749C84.4219 82.2304 82.6876 84.4101 80.6954 86.4023C77.2618 89.8358 73.2657 92.5312 68.8243 94.4062C64.2188 96.3515 59.3321 97.3358 54.293 97.3358C49.2423 97.3358 44.3555 96.3515 39.7618 94.4062C35.3204 92.5312 31.3243 89.8358 27.8907 86.4023C24.4571 82.9687 21.7618 78.9726 19.8868 74.5312C17.9415 69.9374 16.9571 65.0507 16.9571 59.9999C16.9571 54.9491 17.9415 50.0741 19.8868 45.4687C21.7618 41.0273 24.4571 37.0312 27.8907 33.5976C31.3243 30.164 35.3204 27.4687 39.7618 25.5937C44.3555 23.6483 49.254 22.664 54.293 22.664C59.3438 22.664 64.2305 23.6483 68.8243 25.5937C73.2657 27.4687 77.2618 30.164 80.6954 33.5976C82.6876 35.5898 84.4219 37.7694 85.9102 40.1249C86.2618 40.6874 86.8829 41.0273 87.5391 41.0273H94.3126C95.1212 41.0273 95.6368 40.1835 95.2735 39.4687C87.6329 24.2694 72.1407 14.3905 54.8438 14.1913C29.5196 13.8749 8.48446 34.6054 8.43758 59.9062C8.39071 85.2538 28.9337 105.82 54.2813 105.82C71.8009 105.82 87.5509 95.9062 95.2735 80.5312C95.6368 79.8163 95.1094 78.9726 94.3126 78.9726Z" fill="#B3D73F"/>
</svg>
