<svg width="80" height="120" viewBox="0 0 80 120" fill="none" xmlns="http://www.w3.org/2000/svg">
<path d="M49.7669 7.58435H49.7875H49.7669ZM49.7669 7.58435L41.3051 52.0426L71.9595 52.1457L30.2332 112.416L38.6951 63.5043L8.04262 63.3975L49.7669 7.58435ZM49.7726 0.0844629C49.5701 0.0844629 49.3677 0.0918457 49.169 0.106729C47.8452 0.213721 46.9676 0.656221 45.9271 1.3556C45.3412 1.74623 44.8129 2.21706 44.3577 2.75435C44.221 2.9156 44.0921 3.08329 43.9714 3.25685L1.947 58.875C0.287623 61.1493 0.0438733 64.1513 1.31887 66.6601C2.592 69.1688 5.16637 70.7588 7.98825 70.7795L29.637 70.937L22.8307 111.038C22.1839 114.484 24.0214 117.919 27.2557 119.303C28.1957 119.707 29.2082 119.915 30.2313 119.914C32.5881 119.914 34.525 118.811 35.9782 116.82L78.0551 56.55C79.7145 54.2755 79.9565 51.2699 78.6832 48.7649C77.4101 46.2561 74.8357 44.666 72.0139 44.6455L50.3651 44.608L57.0982 9.3486C57.2409 8.77135 57.3128 8.17886 57.3121 7.58423C57.3121 3.52673 54.0814 0.219229 50.0389 0.0879785C49.949 0.0842285 49.8607 0.0842285 49.7727 0.0842285L49.7726 0.0844629Z" fill="#B3D73F"/>
</svg>
