<svg width="120" height="120" viewBox="0 0 120 120" fill="none" xmlns="http://www.w3.org/2000/svg">
<path d="M60.4688 5.13037C60.3516 5.13037 60.1875 5.13037 60.0469 5.1585C58.9688 5.35772 57.6797 6.35381 56.8359 8.62959C55.9453 10.903 55.7578 14.1444 56.5312 17.6155C57.3281 21.0444 58.9688 23.9999 60.7969 25.8046C62.5781 27.6093 64.1953 28.1015 65.2734 27.914C66.3984 27.7499 67.6406 26.7187 68.4844 24.4687C69.375 22.2093 69.6094 18.9233 68.8125 15.4804C67.9922 12.0116 66.375 9.08428 64.5469 7.29131C63 5.69756 61.5703 5.13037 60.4688 5.13037ZM87.5156 35.4843C84.9375 35.5546 81.6797 36.2343 78.5156 37.5702C74.8594 39.164 72.0469 41.2968 70.5 43.3124C68.9531 45.2577 68.8125 46.7343 69.3047 47.6015C69.8203 48.4687 71.25 49.289 73.9922 49.4062C76.7344 49.5702 80.4375 48.8905 84.0703 47.3437C87.7031 45.7733 90.5625 43.6171 92.1094 41.6483C93.6562 39.703 93.7734 38.1796 93.2812 37.3124C92.7891 36.4218 91.3359 35.6483 88.5938 35.5546C88.2188 35.4843 87.8906 35.4843 87.5156 35.4843ZM55.5703 57.2577C54.0234 57.2812 52.6172 57.4687 51.3516 57.7968C48.5859 58.4999 46.9922 59.7655 46.4766 61.289C45.8906 62.8124 46.4766 64.6405 48.3047 66.6093C50.2266 68.5311 53.3906 70.3827 57.3281 71.414C61.2422 72.4452 65.0156 72.4218 67.8281 71.6718C70.6641 70.9452 72.2578 69.6561 72.7734 68.1561C73.3125 66.6327 72.7734 64.828 70.875 62.8358C69.0234 60.914 65.8594 59.0624 61.9219 58.0546C59.6953 57.4686 57.5156 57.2343 55.5703 57.2577ZM93.2344 70.8749L78.75 77.7421C79.7344 77.789 82.1953 77.8593 82.1953 77.8593L83.7422 79.8983L96.5625 73.2187L93.2344 70.8749ZM80.4609 70.8983L67.0078 77.2733C68.2969 77.3437 71.3438 77.3905 72.5625 77.4608L84.2344 71.9296L80.4609 70.8983ZM102.164 73.4296L85.6406 82.1952L89.0391 86.578L106.5 76.1249L102.164 73.4296ZM36.8203 75.5624C36.1106 75.5611 35.403 75.6397 34.7109 75.7968C17.9531 79.664 8.0625 79.9921 5.13281 79.9921H4.21875V105.187C4.21875 105.187 6.9375 104.789 11.4609 104.766C20.2031 104.766 35.6016 106.266 50.6016 115.031C51.3984 115.523 53.1094 115.711 55.2422 115.711C60.9375 115.711 69.5859 114.351 71.5781 113.601C91.6406 106.078 115.781 85.4296 115.781 85.4296L108.164 78.7733C108.164 78.7733 89.4609 90.703 87.0938 91.8515C65.7422 102.328 48.4453 95.789 48.4453 95.789C48.4453 95.789 76.5469 96.4921 85.5703 89.3905L80.2734 81.4218C80.2734 81.4218 60.8672 80.8827 53.9531 79.9687C50.3438 79.4999 42.5391 75.5624 36.8203 75.5624Z" fill="#B3D73F"/>
</svg>
